<?xml version="1.0" encoding="UTF-8"?>
<svg width="316px" height="74px" viewBox="0 0 316 74" version="1.1" xmlns="http://www.w3.org/2000/svg" xmlns:xlink="http://www.w3.org/1999/xlink">
    <title>Xeno Media</title>
    <desc>Xeno Media is a Chicago-based agency providing Drupal Development, Web Consulting and Design to the world's greatest clients.</desc>
    <g id="Xeno-Media" fill-rule="nonzero">
        <path d="M300.849717,38.9886672 C300.165717,39.7446671 299.176383,40.1580005 298.005717,40.1580005 C296.564383,40.1580005 294.980383,39.1860005 294.980383,37.2780005 C294.980383,35.2966672 296.54705,34.4326673 298.005717,34.4326673 C299.176383,34.4326673 300.18305,34.8113339 300.849717,35.5860006 L300.849717,34.1446673 C300.849717,33.0646673 299.968383,32.4166673 298.724383,32.4166673 C297.73505,32.4166673 296.888383,32.795334 296.11505,33.5686673 L295.412383,32.4526673 C296.384383,31.4980007 297.572383,31.0300007 298.977717,31.0300007 C300.868383,31.0300007 302.47105,31.8580007 302.47105,34.0726673 L302.47105,39.9433338 L300.849717,39.9433338 L300.849717,38.9886672 Z M300.849717,36.5580005 C300.36305,35.9100006 299.517717,35.5673339 298.617717,35.5673339 C297.44705,35.5673339 296.61905,36.2700006 296.61905,37.2953339 C296.61905,38.3220005 297.44705,39.0246672 298.617717,39.0246672 C299.517717,39.0246672 300.36305,38.6820005 300.849717,38.0340005 L300.849717,36.5580005 Z" id="a" fill="#726F6A"></path>
        <path d="M291.14465,29.2763992 C291.14465,28.7003992 291.631317,28.2497326 292.189983,28.2497326 C292.765983,28.2497326 293.23265,28.7003992 293.23265,29.2763992 C293.23265,29.8523992 292.765983,30.3203992 292.189983,30.3203992 C291.631317,30.3203992 291.14465,29.8523992 291.14465,29.2763992 Z M291.39665,31.4723991 L293.017983,31.4723991 L293.017983,40.1697323 L291.39665,40.1697323 L291.39665,31.4723991 Z" id="i" fill="#726F6A"></path>
        <path d="M287.267584,38.802799 C286.619584,39.6667989 285.575584,40.2601323 284.42225,40.2601323 C282.15425,40.2601323 280.53425,38.550799 280.53425,35.7054657 C280.53425,32.9147991 282.15425,31.1321325 284.42225,31.1321325 C285.539584,31.1321325 286.564917,31.6721325 287.267584,32.6094658 L287.267584,28.0347992 L288.888917,28.0347992 L288.888917,40.0454656 L287.267584,40.0454656 L287.267584,38.802799 Z M287.267584,33.8507991 C286.816917,33.1494658 285.84625,32.5721324 284.855584,32.5721324 C283.23425,32.5721324 282.22625,33.8867991 282.22625,35.7054657 C282.22625,37.506799 283.23425,38.8201323 284.855584,38.8201323 C285.84625,38.8201323 286.816917,38.262799 287.267584,37.5601323 L287.267584,33.8507991 Z" id="d" fill="#726F6A"></path>
        <path d="M275.152917,31.0300007 C277.763584,31.0300007 279.384917,33.0646673 279.384917,35.7286672 L279.384917,36.1246672 L272.506251,36.1246672 C272.632917,37.6020005 273.712917,38.8260005 275.459584,38.8260005 C276.376917,38.8260005 277.38625,38.4660005 278.03425,37.7993339 L278.79025,38.8620005 C277.92625,39.7086671 276.70225,40.1580005 275.296917,40.1580005 C272.704917,40.1580005 270.795584,38.3220005 270.795584,35.5846672 C270.795584,33.0646673 272.614251,31.0300007 275.152917,31.0300007 Z M272.488917,34.9553339 L277.799584,34.9553339 C277.763584,33.803334 276.99025,32.3620007 275.152917,32.3620007 C273.406251,32.3620007 272.578251,33.767334 272.488917,34.9553339 Z" id="e-media" fill="#726F6A"></path>
        <path d="M267.523451,34.1446673 C267.523451,33.1366673 267.072784,32.4700007 266.010117,32.4700007 C265.128784,32.4700007 264.264784,33.083334 263.850117,33.7126673 L263.850117,39.9420005 L262.230118,39.9420005 L262.230118,34.1446673 C262.230118,33.1366673 261.796784,32.4700007 260.699451,32.4700007 C259.852784,32.4700007 259.007451,33.1006673 258.574118,33.7300006 L258.574118,39.9420005 L256.954118,39.9420005 L256.954118,31.2460007 L258.574118,31.2460007 L258.574118,32.4700007 C258.934118,31.9300007 260.087451,31.0300007 261.383451,31.0300007 C262.698118,31.0300007 263.472784,31.7140007 263.742117,32.6500006 C264.246117,31.8406673 265.398117,31.0300007 266.676784,31.0300007 C268.279451,31.0300007 269.143451,31.9126673 269.143451,33.659334 L269.143451,39.9420005 L267.523451,39.9420005 L267.523451,34.1446673 Z" id="m" fill="#726F6A"></path>
        <path d="M279.710917,72.0000075 C259.828251,72.0000075 243.710918,55.8826746 243.710918,36.0000084 C243.710918,16.1173422 259.828251,9.29999993e-06 279.710917,9.29999993e-06 C299.593583,9.29999993e-06 315.710916,16.1173422 315.710916,36.0000084 C315.710916,55.8826746 299.593583,72.0000075 279.710917,72.0000075 M279.710917,6.00000915 C263.142918,6.00000915 249.710918,19.4320088 249.710918,36.0000084 C249.710918,52.568008 263.142918,66.0000076 279.710917,66.0000076 C296.278917,66.0000076 309.710916,52.568008 309.710916,36.0000084 C309.710916,19.4320088 296.278917,6.00000915 279.710917,6.00000915" id="o" fill="#8CC63F"></path>
        <polygon id="n" fill="#726F6A" points="166.108653 72.0000075 166.108653 6.83334246 223.327319 72.0000075 231.312652 72.0000075 231.312652 9.29999993e-06 225.312652 9.29999993e-06 225.312652 65.1666743 168.093987 9.29999993e-06 160.108653 9.29999993e-06 160.108653 72.0000075"></polygon>
        <path d="M139.207587,49.0000081 L145.654254,49.0000081 C140.711587,62.9800078 127.384921,73.0000075 111.711588,73.0000075 C91.8289218,73.0000075 75.7115889,56.8826746 75.7115889,37.0000084 C75.7115889,17.1173422 91.8289218,1.0000093 111.711588,1.0000093 C131.592921,1.0000093 147.711587,17.1173422 147.711587,37.0000084 L81.7115887,37.0000084 C81.7115887,53.568008 95.142255,67.0000076 111.711588,67.0000076 C124.011588,67.0000076 134.576921,59.5933412 139.207587,49.0000081 Z M111.711588,7.00000915 C97.1969217,7.00000915 85.0915886,17.3066756 82.312922,31.0000085 L141.110254,31.0000085 C138.330254,17.3066756 126.224921,7.00000915 111.711588,7.00000915 Z" id="e-xeno" fill="#8CC63F"></path>
        <polygon id="x" fill="#726F6A" points="63.7350558 72.0000075 36.1883898 40.5533416 8.6430572 72.0000075 0.6670574 72.0000075 32.2003899 36.0000084 0.6670574 9.29999999e-06 8.6430572 9.29999999e-06 36.1883898 31.4466752 63.7350558 9.29999999e-06 71.7110556 9.29999999e-06 40.1763897 36.0000084 71.7110556 72.0000075"></polygon>
    </g>
</svg>